<svg xmlns="http://www.w3.org/2000/svg" width="21.97" height="13.62" viewBox="0 0 21.97 13.62">
  <g id="Group_456" data-name="Group 456" transform="translate(0.1 0.1)">
    <path id="Path_156" data-name="Path 156" d="M7.7,25.188a.382.382,0,0,0,.763,0,5.519,5.519,0,0,1,3.8-5.212,4.053,4.053,0,0,0,3.39,0,5.5,5.5,0,0,1,3.8,5.215.382.382,0,0,0,.763,0,6.281,6.281,0,0,0-3.735-5.716,4.1,4.1,0,1,0-5.037,0A6.29,6.29,0,0,0,7.7,25.188Zm2.921-8.94a3.335,3.335,0,1,1,3.335,3.335A3.339,3.339,0,0,1,10.623,16.248Z" transform="translate(-7.702 -12.15)" fill="#838383" stroke="#838383" stroke-width="0.2"/>
    <path id="Path_157" data-name="Path 157" d="M71.331,36.786H69.052V34.506a.506.506,0,0,0-1.013,0v2.279H65.506a.506.506,0,0,0,0,1.013h2.532v2.279a.506.506,0,0,0,1.013,0V37.8h2.279a.506.506,0,0,0,0-1.013Z" transform="translate(-50.068 -31.455)" fill="#838383" stroke="#838383" stroke-width="0.2"/>
  </g>
</svg>
