<svg xmlns="http://www.w3.org/2000/svg" width="14.76" height="15.797" viewBox="0 0 14.76 15.797">
  <g id="Group_1146" data-name="Group 1146" transform="translate(-6.065 -4.722)" opacity="0.998">
    <path id="Path_208" data-name="Path 208" d="M6.8,18.033h3.5a3.222,3.222,0,0,0,6.274,0h3.5a.742.742,0,0,0,.616-1.151l-1.537-2.3V10.653a5.724,5.724,0,1,0-11.441-.412q-.008.206,0,.412V14.58l-1.537,2.3A.743.743,0,0,0,6.8,18.033Zm6.638,1a1.753,1.753,0,0,1-1.581-1h3.163A1.753,1.753,0,0,1,13.441,19.035ZM9.083,15.211a.748.748,0,0,0,.126-.408v-4.15a4.239,4.239,0,1,1,8.471-.355c.005.118.005.237,0,.355V14.8a.748.748,0,0,0,.126.408l.891,1.336H8.192Z" transform="translate(0 0)" fill="#777"/>
  </g>
</svg>
