<svg xmlns="http://www.w3.org/2000/svg" width="24" height="24" viewBox="0 0 24 24">
  <g id="Group_1145" data-name="Group 1145" transform="translate(-232 -280)">
    <rect id="Rectangle_2536" data-name="Rectangle 2536" width="24" height="24" transform="translate(232 280)" fill="none"/>
    <path id="Path_207" data-name="Path 207" d="M12.775,3.99c-.024,0-.048,0-.072,0H12.7a.749.749,0,0,0-.538.278l-6.665,6L3.247,12.29A.75.75,0,0,0,4.252,13.4l.247-.223v6.566a12.8,12.8,0,0,0,.041,1.382A1.781,1.781,0,0,0,5,22.243a1.781,1.781,0,0,0,1.115.463,12.823,12.823,0,0,0,1.383.041h.75a12.823,12.823,0,0,0,1.383-.041,1.781,1.781,0,0,0,1.115-.463,1.785,1.785,0,0,0,.461-1.114,13,13,0,0,0,.041-1.382v-1.5c0-.56,0-.971.031-1.214a1.171,1.171,0,0,1,.04-.215,1.106,1.106,0,0,1,.215-.04c.243-.028.653-.031,1.214-.031s.971,0,1.214.031a1.106,1.106,0,0,1,.215.04,1.171,1.171,0,0,1,.04.215c.027.243.031.654.031,1.214v1.5a13.044,13.044,0,0,0,.041,1.383,1.579,1.579,0,0,0,1.578,1.576,12.8,12.8,0,0,0,1.381.041H18a12.83,12.83,0,0,0,1.383-.041,1.577,1.577,0,0,0,1.576-1.577A13,13,0,0,0,21,19.747V13.182l.247.223a.75.75,0,1,0,1.005-1.114h0L20.007,10.27l-6.662-6v0a.75.75,0,0,0-.568-.281ZM12.75,5.758,15.8,8.5l3.2,2.883A1.5,1.5,0,0,1,19.5,12.5v7.248c0,.56,0,.971-.031,1.214a1.171,1.171,0,0,1-.04.215,1.106,1.106,0,0,1-.215.04c-.243.028-.653.031-1.214.031h-.75c-.561,0-.971,0-1.214-.031a1.171,1.171,0,0,1-.215-.04,1.106,1.106,0,0,1-.04-.215c-.028-.243-.031-.653-.031-1.214v-1.5a13,13,0,0,0-.041-1.382,1.577,1.577,0,0,0-1.576-1.577,12.823,12.823,0,0,0-1.383-.041,12.823,12.823,0,0,0-1.383.041,1.781,1.781,0,0,0-1.115.463,1.781,1.781,0,0,0-.461,1.114,12.8,12.8,0,0,0-.041,1.382v1.5c0,.56,0,.971-.031,1.214a1.171,1.171,0,0,1-.04.215,1.106,1.106,0,0,1-.215.04c-.243.028-.653.031-1.214.031H7.5c-.561,0-.971,0-1.214-.031a1.106,1.106,0,0,1-.215-.04,1.171,1.171,0,0,1-.04-.215C6,20.719,6,20.308,6,19.747V12.5a1.5,1.5,0,0,1,.5-1.115L9.7,8.5,12.75,5.758Z" transform="translate(231.25 279.003)"/>
  </g>
</svg>
