<svg xmlns="http://www.w3.org/2000/svg" width="11.297" height="13.556" viewBox="0 0 11.297 13.556">
  <g id="Group_457" data-name="Group 457" transform="translate(-4)">
    <g id="Group_441" data-name="Group 441" transform="translate(4)">
      <g id="Group_440" data-name="Group 440">
        <path id="Path_158" data-name="Path 158" d="M12.569,11.625V.567a.565.565,0,1,1,1.13,0v11.06l.638-.638a.565.565,0,0,1,.8.8l-1.6,1.6a.554.554,0,0,1-.394.164l0,0a.556.556,0,0,1-.393-.162l-1.6-1.6a.565.565,0,0,1,.8-.8ZM6.728,1.931V12.989a.565.565,0,1,1-1.13,0V1.929l-.638.638a.565.565,0,0,1-.8-.8l1.6-1.6A.554.554,0,0,1,6.161,0l0,0a.556.556,0,0,1,.393.162l1.6,1.6a.565.565,0,0,1-.8.8Z" transform="translate(-4)" fill="#838383" fill-rule="evenodd"/>
      </g>
    </g>
  </g>
</svg>
