<svg xmlns="http://www.w3.org/2000/svg" width="13.764" height="16" viewBox="0 0 13.764 16">
  <g id="Group_1149" data-name="Group 1149" transform="translate(-14.6 -8.8)">
    <g id="Group_1147" data-name="Group 1147" transform="translate(17.4 8.8)">
      <path id="Path_209" data-name="Path 209" d="M33.083,16.965a4.083,4.083,0,1,1,4.083-4.083A4.082,4.082,0,0,1,33.083,16.965Zm0-6.591A2.527,2.527,0,1,0,35.61,12.9,2.522,2.522,0,0,0,33.083,10.375Z" transform="translate(-29 -8.8)" fill="#777"/>
    </g>
    <g id="Group_1148" data-name="Group 1148" transform="translate(14.6 17.218)">
      <path id="Path_210" data-name="Path 210" d="M28.364,59.682H26.809V58.71a5.07,5.07,0,0,0-5.055-5.055H21.21a5.07,5.07,0,0,0-5.055,5.055v.972H14.6V58.71a6.629,6.629,0,0,1,6.61-6.61h.544a6.629,6.629,0,0,1,6.61,6.61Z" transform="translate(-14.6 -52.1)" fill="#777"/>
    </g>
  </g>
</svg>
